<mxfile host="app.diagrams.net" modified="2021-02-11T13:23:55.170Z" agent="5.0 (X11; Linux x86_64) AppleWebKit/537.36 (KHTML, like Gecko) Chrome/88.0.4324.150 Safari/537.36" etag="l0kWUlTrQnsJFqjQV2Jq" version="14.3.0" type="github">
  <diagram id="C5RBs43oDa-KdzZeNtuy" name="Page-1">
    <mxGraphModel dx="868" dy="366" grid="1" gridSize="10" guides="1" tooltips="1" connect="1" arrows="1" fold="1" page="1" pageScale="1" pageWidth="827" pageHeight="1169" math="0" shadow="0">
      <root>
        <mxCell id="WIyWlLk6GJQsqaUBKTNV-0" />
        <mxCell id="WIyWlLk6GJQsqaUBKTNV-1" parent="WIyWlLk6GJQsqaUBKTNV-0" />
        <mxCell id="glf8Gdkcyco9Y0pr3LGQ-36" value="Строка arg получена" style="rounded=1;whiteSpace=wrap;html=1;fontSize=12;glass=0;strokeWidth=1;shadow=0;fillColor=#ffe6cc;strokeColor=#d79b00;" parent="WIyWlLk6GJQsqaUBKTNV-1" vertex="1">
          <mxGeometry x="30" width="120" height="40" as="geometry" />
        </mxCell>
        <mxCell id="glf8Gdkcyco9Y0pr3LGQ-37" value="arg != None&lt;br&gt;&amp;amp;&lt;br&gt;len(arg)&amp;gt;1" style="rhombus;whiteSpace=wrap;html=1;shadow=0;fontFamily=Helvetica;fontSize=12;align=center;strokeWidth=1;spacing=6;spacingTop=-4;fillColor=#fa6800;strokeColor=#C73500;fontColor=#ffffff;" parent="WIyWlLk6GJQsqaUBKTNV-1" vertex="1">
          <mxGeometry x="40" y="60" width="100" height="80" as="geometry" />
        </mxCell>
        <mxCell id="glf8Gdkcyco9Y0pr3LGQ-38" value="" style="rounded=0;html=1;jettySize=auto;orthogonalLoop=1;fontSize=11;endArrow=block;endFill=0;endSize=8;strokeWidth=1;shadow=0;labelBackgroundColor=none;edgeStyle=orthogonalEdgeStyle;entryX=0.5;entryY=0;entryDx=0;entryDy=0;" parent="WIyWlLk6GJQsqaUBKTNV-1" target="glf8Gdkcyco9Y0pr3LGQ-37" edge="1">
          <mxGeometry relative="1" as="geometry">
            <mxPoint x="90" y="40" as="sourcePoint" />
            <mxPoint x="30" y="90" as="targetPoint" />
            <Array as="points">
              <mxPoint x="90" y="60" />
              <mxPoint x="90" y="60" />
            </Array>
          </mxGeometry>
        </mxCell>
        <mxCell id="glf8Gdkcyco9Y0pr3LGQ-39" value="Нет" style="edgeStyle=orthogonalEdgeStyle;rounded=0;html=1;jettySize=auto;orthogonalLoop=1;fontSize=11;endArrow=block;endFill=0;endSize=8;strokeWidth=1;shadow=0;labelBackgroundColor=none;exitX=1;exitY=0.5;exitDx=0;exitDy=0;" parent="WIyWlLk6GJQsqaUBKTNV-1" source="glf8Gdkcyco9Y0pr3LGQ-37" target="glf8Gdkcyco9Y0pr3LGQ-40" edge="1">
          <mxGeometry x="-0.5002" y="10" relative="1" as="geometry">
            <mxPoint as="offset" />
            <mxPoint x="160" y="170" as="sourcePoint" />
            <Array as="points">
              <mxPoint x="160" y="100" />
            </Array>
          </mxGeometry>
        </mxCell>
        <mxCell id="glf8Gdkcyco9Y0pr3LGQ-40" value="pass" style="rounded=1;whiteSpace=wrap;html=1;fontSize=12;glass=0;strokeWidth=1;shadow=0;fillColor=#f8cecc;gradientColor=#ea6b66;strokeColor=#b85450;" parent="WIyWlLk6GJQsqaUBKTNV-1" vertex="1">
          <mxGeometry x="100" y="150" width="120" height="40" as="geometry" />
        </mxCell>
        <mxCell id="glf8Gdkcyco9Y0pr3LGQ-41" value="Да" style="rounded=0;html=1;jettySize=auto;orthogonalLoop=1;fontSize=11;endArrow=block;endFill=0;endSize=8;strokeWidth=1;shadow=0;labelBackgroundColor=none;edgeStyle=orthogonalEdgeStyle;exitX=0.5;exitY=1;exitDx=0;exitDy=0;" parent="WIyWlLk6GJQsqaUBKTNV-1" source="glf8Gdkcyco9Y0pr3LGQ-37" target="glf8Gdkcyco9Y0pr3LGQ-44" edge="1">
          <mxGeometry x="-0.4002" y="-20" relative="1" as="geometry">
            <mxPoint as="offset" />
            <mxPoint x="180" y="210" as="sourcePoint" />
            <mxPoint x="40" y="190" as="targetPoint" />
            <Array as="points" />
          </mxGeometry>
        </mxCell>
        <mxCell id="glf8Gdkcyco9Y0pr3LGQ-42" value="Да" style="rounded=0;html=1;jettySize=auto;orthogonalLoop=1;fontSize=11;endArrow=block;endFill=0;endSize=8;strokeWidth=1;shadow=0;labelBackgroundColor=none;edgeStyle=orthogonalEdgeStyle;entryX=0.5;entryY=0;entryDx=0;entryDy=0;exitX=0.5;exitY=1;exitDx=0;exitDy=0;" parent="WIyWlLk6GJQsqaUBKTNV-1" source="glf8Gdkcyco9Y0pr3LGQ-44" target="glf8Gdkcyco9Y0pr3LGQ-45" edge="1">
          <mxGeometry x="-0.001" y="-20" relative="1" as="geometry">
            <mxPoint as="offset" />
            <mxPoint x="220" y="330" as="sourcePoint" />
            <Array as="points" />
          </mxGeometry>
        </mxCell>
        <mxCell id="glf8Gdkcyco9Y0pr3LGQ-44" value="Если в arg нет &#39;()[]&amp;lt;&amp;gt;{}&#39;" style="rhombus;whiteSpace=wrap;html=1;shadow=0;fontFamily=Helvetica;fontSize=12;align=center;strokeWidth=1;spacing=6;spacingTop=-4;fillColor=#fa6800;strokeColor=#C73500;fontColor=#ffffff;" parent="WIyWlLk6GJQsqaUBKTNV-1" vertex="1">
          <mxGeometry x="40" y="200" width="100" height="80" as="geometry" />
        </mxCell>
        <mxCell id="glf8Gdkcyco9Y0pr3LGQ-45" value="Починить люстру" style="rounded=1;whiteSpace=wrap;html=1;fontSize=12;glass=0;strokeWidth=1;shadow=0;fillColor=#ffe6cc;strokeColor=#d79b00;" parent="WIyWlLk6GJQsqaUBKTNV-1" vertex="1">
          <mxGeometry x="30" y="340" width="120" height="40" as="geometry" />
        </mxCell>
        <mxCell id="glf8Gdkcyco9Y0pr3LGQ-51" value="arg:&lt;br&gt;&#39;echo &quot;Hi, ANT!\n&quot;&#39;" style="shape=cube;whiteSpace=wrap;html=1;boundedLbl=1;backgroundOutline=1;darkOpacity=0.05;darkOpacity2=0.1;shadow=0;strokeWidth=1;fillColor=#f8cecc;strokeColor=#b85450;" parent="WIyWlLk6GJQsqaUBKTNV-1" vertex="1">
          <mxGeometry x="160" width="100" height="70" as="geometry" />
        </mxCell>
        <mxCell id="glf8Gdkcyco9Y0pr3LGQ-53" value="Нет" style="edgeStyle=orthogonalEdgeStyle;rounded=0;html=1;jettySize=auto;orthogonalLoop=1;fontSize=11;endArrow=block;endFill=0;endSize=8;strokeWidth=1;shadow=0;labelBackgroundColor=none;exitX=1;exitY=0.5;exitDx=0;exitDy=0;entryX=0.5;entryY=0;entryDx=0;entryDy=0;" parent="WIyWlLk6GJQsqaUBKTNV-1" source="glf8Gdkcyco9Y0pr3LGQ-44" target="glf8Gdkcyco9Y0pr3LGQ-54" edge="1">
          <mxGeometry x="-0.5002" y="10" relative="1" as="geometry">
            <mxPoint as="offset" />
            <mxPoint x="180" y="260" as="sourcePoint" />
            <Array as="points">
              <mxPoint x="160" y="240" />
            </Array>
            <mxPoint x="220.0344827586207" y="300" as="targetPoint" />
          </mxGeometry>
        </mxCell>
        <mxCell id="glf8Gdkcyco9Y0pr3LGQ-54" value="arg = list_arg(arg)" style="rounded=1;whiteSpace=wrap;html=1;fontSize=12;glass=0;strokeWidth=1;shadow=0;fillColor=#f8cecc;strokeColor=#b85450;gradientColor=#ea6b66;" parent="WIyWlLk6GJQsqaUBKTNV-1" vertex="1">
          <mxGeometry x="100" y="290" width="120" height="40" as="geometry" />
        </mxCell>
        <mxCell id="glf8Gdkcyco9Y0pr3LGQ-56" value="&lt;h1&gt;&lt;span style=&quot;font-size: 12px ; font-weight: normal&quot;&gt;Если: строка не пуста и если длина строки больше 1.&lt;/span&gt;&lt;br&gt;&lt;/h1&gt;" style="text;html=1;strokeColor=none;fillColor=none;spacing=5;spacingTop=-20;whiteSpace=wrap;overflow=hidden;rounded=0;shadow=0;" parent="WIyWlLk6GJQsqaUBKTNV-1" vertex="1">
          <mxGeometry x="170" y="60" width="130" height="90" as="geometry" />
        </mxCell>
        <mxCell id="glf8Gdkcyco9Y0pr3LGQ-67" value="Строка не требует создать&lt;br&gt;массив?" style="text;html=1;align=center;verticalAlign=middle;resizable=0;points=[];autosize=1;" parent="WIyWlLk6GJQsqaUBKTNV-1" vertex="1">
          <mxGeometry x="130" y="200" width="160" height="30" as="geometry" />
        </mxCell>
        <mxCell id="glf8Gdkcyco9Y0pr3LGQ-70" value="list_arg(arg: str) -&amp;gt; list:" style="rounded=1;whiteSpace=wrap;html=1;fontSize=12;glass=0;strokeWidth=1;shadow=0;fillColor=#ffe6cc;strokeColor=#d79b00;" parent="WIyWlLk6GJQsqaUBKTNV-1" vertex="1">
          <mxGeometry x="330" width="120" height="40" as="geometry" />
        </mxCell>
        <mxCell id="glf8Gdkcyco9Y0pr3LGQ-71" value="for i in arg" style="shape=partialRectangle;whiteSpace=wrap;html=1;top=0;left=0;fillColor=#f8cecc;shadow=0;strokeWidth=1;strokeColor=#b85450;" parent="WIyWlLk6GJQsqaUBKTNV-1" vertex="1">
          <mxGeometry x="330" y="90" width="120" height="60" as="geometry" />
        </mxCell>
        <mxCell id="glf8Gdkcyco9Y0pr3LGQ-72" value="pass" style="rounded=1;whiteSpace=wrap;html=1;fontSize=12;glass=0;strokeWidth=1;shadow=0;fillColor=#f8cecc;strokeColor=#b85450;gradientColor=#ea6b66;" parent="WIyWlLk6GJQsqaUBKTNV-1" vertex="1">
          <mxGeometry x="330" y="210" width="120" height="40" as="geometry" />
        </mxCell>
        <mxCell id="glf8Gdkcyco9Y0pr3LGQ-75" value="" style="endArrow=none;dashed=1;html=1;labelBackgroundColor=none;exitX=0.5;exitY=1;exitDx=0;exitDy=0;entryX=1;entryY=0.5;entryDx=0;entryDy=0;rounded=1;" parent="WIyWlLk6GJQsqaUBKTNV-1" source="glf8Gdkcyco9Y0pr3LGQ-72" target="glf8Gdkcyco9Y0pr3LGQ-71" edge="1">
          <mxGeometry width="50" height="50" relative="1" as="geometry">
            <mxPoint x="380" y="200" as="sourcePoint" />
            <mxPoint x="550" y="160" as="targetPoint" />
            <Array as="points">
              <mxPoint x="390" y="290" />
              <mxPoint x="480" y="290" />
              <mxPoint x="480" y="120" />
            </Array>
          </mxGeometry>
        </mxCell>
        <mxCell id="glf8Gdkcyco9Y0pr3LGQ-79" value="" style="rounded=0;html=1;jettySize=auto;orthogonalLoop=1;fontSize=11;endArrow=block;endFill=0;endSize=8;strokeWidth=1;shadow=0;labelBackgroundColor=none;edgeStyle=orthogonalEdgeStyle;exitX=0.5;exitY=1;exitDx=0;exitDy=0;entryX=0.5;entryY=0;entryDx=0;entryDy=0;" parent="WIyWlLk6GJQsqaUBKTNV-1" source="glf8Gdkcyco9Y0pr3LGQ-70" target="glf8Gdkcyco9Y0pr3LGQ-71" edge="1">
          <mxGeometry relative="1" as="geometry">
            <mxPoint x="420" y="120" as="sourcePoint" />
            <mxPoint x="760" y="220" as="targetPoint" />
            <Array as="points">
              <mxPoint x="390" y="90" />
              <mxPoint x="390" y="90" />
            </Array>
          </mxGeometry>
        </mxCell>
        <mxCell id="glf8Gdkcyco9Y0pr3LGQ-80" value="" style="rounded=0;html=1;jettySize=auto;orthogonalLoop=1;fontSize=11;endArrow=block;endFill=0;endSize=8;strokeWidth=1;shadow=0;labelBackgroundColor=none;edgeStyle=orthogonalEdgeStyle;exitX=0.5;exitY=1;exitDx=0;exitDy=0;entryX=0.5;entryY=0;entryDx=0;entryDy=0;" parent="WIyWlLk6GJQsqaUBKTNV-1" source="glf8Gdkcyco9Y0pr3LGQ-71" target="glf8Gdkcyco9Y0pr3LGQ-72" edge="1">
          <mxGeometry relative="1" as="geometry">
            <mxPoint x="400" y="50" as="sourcePoint" />
            <mxPoint x="690" y="190" as="targetPoint" />
            <Array as="points">
              <mxPoint x="390" y="180" />
              <mxPoint x="390" y="180" />
            </Array>
          </mxGeometry>
        </mxCell>
      </root>
    </mxGraphModel>
  </diagram>
</mxfile>
